Coordinates
version=1
nRows=22
nColumns=24
inDegrees=yes

Units are S.I. units (second, meters, Newtons, ...)
Angles are in degrees.

endheader
time	pelvis_tilt	pelvis_list	pelvis_rotation	pelvis_tx	pelvis_ty	pelvis_tz	hip_flexion_r	hip_adduction_r	hip_rotation_r	knee_angle_r	ankle_angle_r	subtalar_angle_r	mtp_angle_r	hip_flexion_l	hip_adduction_l	hip_rotation_l	knee_angle_l	ankle_angle_l	subtalar_angle_l	mtp_angle_l	lumbar_extension	lumbar_bending	lumbar_rotation
      5.20000000	     12.95486028	     -6.37254060	      1.43583101	      1.23160013	      0.91441017	     -0.23007166	    -31.45209741	      8.62076325	     -0.88236129	    -14.59263885	     21.70455706	     12.23708340	      0.00000000	     10.23313771	     -3.65347812	      8.04623240	     -5.72721194	     11.37400718	      0.40357974	      0.00000000	    -28.76373865	      5.84502084	      4.31268067
      5.20500000	     12.92321657	     -5.80897429	      1.32152040	      1.23959023	      0.91428231	     -0.23029562	    -31.36071716	      7.92044943	     -1.24014381	    -15.73513313	     21.27853208	     12.87012695	      0.00000000	     10.17199046	     -2.96709230	      8.11600436	     -6.38358049	     11.26574602	      0.04986105	      0.00000000	    -28.63631195	      5.20033517	      4.12377245
      5.21000000	     12.94183945	     -5.20544549	      1.26471280	      1.24758562	      0.91420730	     -0.23065706	    -31.29495432	      7.19567027	     -1.69259723	    -16.91826272	     20.81094470	     13.57563824	      0.00000000	     10.06725704	     -2.21893276	      8.27070046	     -7.11008336	     11.17627704	     -0.34327132	      0.00000000	    -28.56093134	      4.54153769	      3.90882397
      5.21500000	     12.87780999	     -4.58241634	      1.16107087	      1.25570668	      0.91412230	     -0.23086055	    -31.11644535	      6.44951315	     -2.02908277	    -18.15328017	     20.24865990	     14.06621227	      0.00000000	     10.02823181	     -1.46553197	      8.33143001	     -7.86444458	     11.11372013	     -0.62909577	      0.00000000	    -28.36856477	      3.81527890	      3.77698400
      5.22000000	     12.92372073	     -3.94558830	      1.13448650	      1.26368256	      0.91413034	     -0.23138836	    -31.00782248	      5.67978648	     -2.56054847	    -19.45435684	     19.69173242	     14.87096386	      0.00000000	      9.89216650	     -0.65934740	      8.50697006	     -8.67337970	     10.98278115	     -1.09034093	      0.00000000	    -28.33275062	      3.16407806	      3.47491426
      5.22500000	     12.92641678	     -3.29274674	      1.09766466	      1.27178216	      0.91417003	     -0.23182890	    -30.83925430	      4.90159520	     -3.03063482	    -20.77325000	     18.98337955	     15.49446202	      0.00000000	      9.77660313	      0.15337326	      8.63604905	     -9.48246594	     10.84365452	     -1.44899515	      0.00000000	    -28.22490295	      2.46836183	      3.24990366
      5.23000000	     12.87102647	     -2.64318135	      1.00133384	      1.27990279	      0.91419144	     -0.23216747	    -30.55605446	      4.10180822	     -3.40592339	    -22.18648535	     18.25165999	     15.98633394	      0.00000000	      9.70296990	      0.94840262	      8.65735229	    -10.28908174	     10.73659343	     -1.73863151	      0.00000000	    -28.04741249	      1.74818374	      3.03791194
      5.23500000	     12.86645712	     -2.00062732	      0.97196346	      1.28798764	      0.91428716	     -0.23269378	    -30.30196327	      3.31446827	     -3.88028254	    -23.61852217	     17.41343708	     16.58602303	      0.00000000	      9.57032766	      1.75832543	      8.78851420	    -11.09670008	     10.57555740	     -2.11309797	      0.00000000	    -27.93397595	      1.07925346	      2.81488667
      5.24000000	     12.80603820	     -1.35605222	      0.88200507	      1.29612727	      0.91437127	     -0.23306280	    -29.94699638	      2.50818919	     -4.24223179	    -25.11203592	     16.53789063	     16.97570915	      0.00000000	      9.47082602	      2.54703620	      8.79161863	    -11.87955249	     10.46619951	     -2.36195210	      0.00000000	    -27.74770481	      0.36947967	      2.61348378
      5.24500000	     12.76089648	     -0.73125133	      0.80549343	      1.30422068	      0.91450337	     -0.23351780	    -29.56712512	      1.70642109	     -4.63376977	    -26.65061904	     15.58772049	     17.38615527	      0.00000000	      9.33857294	      3.32198845	      8.83203083	    -12.63240072	     10.33282132	     -2.65427684	      0.00000000	    -27.58675955	     -0.29847932	      2.42870630
      5.25000000	     12.72962229	     -0.12277022	      0.74674834	      1.31228642	      0.91467663	     -0.23401313	    -29.16914037	      0.91911713	     -5.01956408	    -28.21600112	     14.57778064	     17.76089476	      0.00000000	      9.17637317	      4.08275270	      8.89985080	    -13.36008051	     10.18778045	     -2.95987541	      0.00000000	    -27.44365622	     -0.94046894	      2.24449660
      5.25500000	     12.67681917	      0.47822008	      0.65906567	      1.32036687	      0.91486551	     -0.23440335	    -28.70904931	      0.13214955	     -5.34462656	    -29.81830398	     13.52731945	     17.92904169	      0.00000000	      9.01003625	      4.81777710	      8.89394253	    -14.03885574	     10.09783169	     -3.17341549	      0.00000000	    -27.27044368	     -1.59473672	      2.07226602
      5.26000000	     12.62738277	      1.05628186	      0.56640673	      1.32840368	      0.91509398	     -0.23482889	    -28.21191677	     -0.64961379	     -5.65642309	    -31.44982779	     12.43946666	     18.06683746	      0.00000000	      8.81935623	      5.52919439	      8.90042857	    -14.67203534	     10.00090005	     -3.41020615	      0.00000000	    -27.10648191	     -2.21899620	      1.92690041
      5.26500000	     12.58207308	      1.61118886	      0.46746236	      1.33639220	      0.91535800	     -0.23525428	    -27.67948867	     -1.41950402	     -5.94419013	    -33.10350564	     11.33131203	     18.10362247	      0.00000000	      8.60395020	      6.21256255	      8.90459252	    -15.25767433	      9.92266384	     -3.63846161	      0.00000000	    -26.94974429	     -2.81699947	      1.79510577
      5.27000000	     12.53815577	      2.14426420	      0.36077179	      1.34434280	      0.91565624	     -0.23565825	    -27.11010970	     -2.17587971	     -6.20255839	    -34.77362741	     10.21552429	     18.02670696	      0.00000000	      8.36301420	      6.86703932	      8.90271854	    -15.78730603	      9.86867497	     -3.85293844	      0.00000000	    -26.79755405	     -3.39696415	      1.67847969
      5.27500000	     12.49645225	      2.65381983	      0.24251896	      1.35225336	      0.91598827	     -0.23604663	    -26.50663336	     -2.91959437	     -6.43172352	    -36.45088040	      9.10811688	     17.82954556	      0.00000000	      8.09773917	      7.49104833	      8.89083528	    -16.26391769	      9.84071960	     -4.05546524	      0.00000000	    -26.64738615	     -3.94877758	      1.57922011
      5.28000000	     12.45726708	      3.13936731	      0.11297203	      1.36010317	      0.91635912	     -0.23640267	    -25.86521475	     -3.64707867	     -6.62727013	    -38.13570322	      8.02662879	     17.51487476	      0.00000000	      7.80663901	      8.08355452	      8.87731430	    -16.68137354	      9.84114324	     -4.25041066	      0.00000000	    -26.50480314	     -4.48293775	      1.49730378
      5.28500000	     12.42859198	      3.59575022	     -0.01658746	      1.36790657	      0.91677610	     -0.23671865	    -25.20388651	     -4.34229329	     -6.78798624	    -39.80837689	      6.97712392	     17.07181289	      0.00000000	      7.48073627	      8.63920499	      8.88030530	    -17.04202218	      9.87158916	     -4.42278950	      0.00000000	    -26.37492826	     -4.99389244	      1.42102447
      5.29000000	     12.40757506	      4.02914812	     -0.15559559	      1.37566646	      0.91723519	     -0.23703511	    -24.51817414	     -5.02208355	     -6.92283093	    -41.46856774	      5.98242093	     16.51200691	      0.00000000	      7.12260655	      9.16777264	      8.88370502	    -17.34355716	      9.92790660	     -4.59119049	      0.00000000	    -26.25418075	     -5.47027178	      1.35528399
      5.29500000	     12.35987270	      4.43361322	     -0.36597392	      1.38335189	      0.91768498	     -0.23734661	    -23.74823857	     -5.71937050	     -6.99441306	    -43.14436950	      5.11676515	     15.86519039	      0.00000000	      6.78080528	      9.66255095	      8.80927084	    -17.59445418	     10.00601827	     -4.80909740	      0.00000000	    -26.09997568	     -5.92267693	      1.36967535
      5.30000000	     12.30551701	      4.79052439	     -0.58605468	      1.39100118	      0.91820272	     -0.23755569	    -22.93605952	     -6.35400707	     -6.98315356	    -44.78640971	      4.26367725	     15.11117660	      0.00000000	      6.41589218	     10.09433438	      8.75017046	    -17.77226720	     10.11312110	     -4.96699155	      0.00000000	    -25.93485085	     -6.34849723	      1.41343380
      5.30500000	     12.35065964	      5.13253463	     -0.66390277	      1.39858163	      0.91882203	     -0.23789755	    -22.25578880	     -6.91329773	     -7.12741899	    -46.34292890	      3.50519767	     14.18943090	      0.00000000	      5.92358438	     10.52447131	      8.83585221	    -17.92701620	     10.27990811	     -5.08009458	      0.00000000	    -25.90263170	     -6.69133710	      1.27512053
